# xmcd
#
# Track frame offsets:
#	150
#	13368
#	31931
#	47479
#	62564
#	75992
#	91205
#	105603
#	120366
#	135281
#	153461
#	168691
#	185989
#	202567
#	218360
#	232175
#	242468
#	260273
#	274176
#	291156
#	305691
#
# Disc length: 4255 seconds
#
# Revision: 1
# Processed by: cddbd v1.5.2PL0 Copyright (c) Steve Scherf et al.
# Submitted via: audiograbber 1.83.01
#
DISCID=16109d15
DTITLE=Various Artist - Halland's Country Hits Volume 2
DYEAR=1900
DGENRE=
TTITLE0=Baillie and The Boys - She Deserves You
TTITLE1=Baillie and The Boys - (Wish I Had A) Heart Of Stone
TTITLE2=Bellamy Brothers - Cowboy Beat
TTITLE3=Bellamy Brothers - Dancin' Cowboys
TTITLE4=Bellamy Brothers - Do You Love As Good As You Look
TTITLE5=Bellamy Brothers - I Could Be Persuaded
TTITLE6=Bellamy Brothers - If I Said You Had A Beautiful Body (Would You Hold I
TTITLE6=t Against Me)
TTITLE7=Bellamy Brothers - Let Your Love Flow
TTITLE8=Bellamy Brothers - Lovers Live Longer
TTITLE9=Bellamy Brothers - Old Hippie
TTITLE10=Bellamy Brothers - Redneck Girl
TTITLE11=Bellamy Brothers With The Forresters - Too Much Is Not Enough
TTITLE12=Bellamy Brothers - When I'm Away From You
TTITLE13=Clint Black - Nobody's Home
TTITLE14=Clint Black - Norhing's News
TTITLE15=Clint Black - One More Payment
TTITLE16=Susy Bogguss - Someday Soon
TTITLE17=Larry Boone - To Be With You
TTITLE18=Clint Brooks - We Shall Be Free
TTITLE19=T. Graham Brown - Hell And High Water
TTITLE20=T. Graham Brown - I Tell It Like It Used To Be
EXTD=
EXTT0=
EXTT1=
EXTT2=
EXTT3=
EXTT4=
EXTT5=
EXTT6=
EXTT7=
EXTT8=
EXTT9=
EXTT10=
EXTT11=
EXTT12=
EXTT13=
EXTT14=
EXTT15=
EXTT16=
EXTT17=
EXTT18=
EXTT19=
EXTT20=
PLAYORDER=
